<?xml version="1.0" encoding="UTF-8"?>
<!DOCTYPE svg PUBLIC "-//W3C//DTD SVG 1.0//EN" "http://www.w3.org/TR/2001/REC-SVG-20010904/DTD/svg10.dtd">
<!-- Creator: CorelDRAW 2019 (64 Bit) -->
<svg xmlns="http://www.w3.org/2000/svg" xml:space="preserve" width="147.999mm" height="148mm" version="1.0" style="shape-rendering:geometricPrecision; text-rendering:geometricPrecision; image-rendering:optimizeQuality; fill-rule:evenodd; clip-rule:evenodd"
viewBox="0 0 4984.72 4984.76"
 xmlns:xlink="http://www.w3.org/1999/xlink"
 xmlns:xodm="http://www.corel.com/coreldraw/odm/2003">
 <defs>
  <style type="text/css">
   <![CDATA[
    .fil0 {fill:#FEFEFE}
    .fil1 {fill:#475993}
   ]]>
  </style>
 </defs>
 <g id="Camada_x0020_1">
  <metadata id="CorelCorpID_0Corel-Layer"/>
  <g id="_2844185490096">
   <rect class="fil0" x="1237.63" y="553.26" width="3075.39" height="4431.5"/>
   <path class="fil1" d="M4313 0l-3641.3 0c-370.96,0 -671.71,300.73 -671.71,671.71l0 3641.32c0,370.98 300.73,671.71 671.71,671.71l1795.87 0 3.06 -1781.27 -462.77 -0c-60.14,0 -108.95,-48.63 -109.19,-108.77l-2.22 -574.18c-0.23,-60.47 48.73,-109.61 109.2,-109.61l461.94 0 0 -554.8c0,-643.84 393.22,-994.42 967.57,-994.42l471.3 0c60.3,0 109.2,48.88 109.2,109.2l0 484.15c0,60.29 -48.86,109.16 -109.14,109.2l-289.23 0.13c-312.35,0 -372.83,148.42 -372.83,366.25l0 480.31 686.34 0c65.4,0 116.13,57.11 108.43,122.05l-68.06 574.18c-6.51,54.95 -53.1,96.34 -108.43,96.34l-615.22 0 -3.06 1781.27 1068.57 0c370.97,0 671.69,-300.73 671.69,-671.69l0 -3641.36c-0.01,-370.98 -300.74,-671.71 -671.72,-671.71z"/>
  </g>
 </g>
</svg>
